<svg width="180" height="80" viewBox="0 0 180 80" fill="none" xmlns="http://www.w3.org/2000/svg">
<path fill-rule="evenodd" clip-rule="evenodd" d="M150 8C150 3.58172 146.418 0 142 0H8C3.58172 0 0 3.58172 0 8V40V72C0 76.4183 3.58172 80 8 80H172C176.418 80 180 76.4183 180 72V48C180 43.5817 176.418 40 172 40H158C153.582 40 150 36.4183 150 32V8Z" fill="white"/>
<path d="M13.7614 27V12.4545H22.5398V14.017H15.5227V18.9318H22.0852V20.4943H15.5227V25.4375H22.6534V27H13.7614ZM29.919 27.2273C28.8963 27.2273 28.0156 26.9858 27.277 26.5028C26.5384 26.0199 25.9702 25.3546 25.5724 24.5071C25.1747 23.6596 24.9759 22.6913 24.9759 21.6023C24.9759 20.4943 25.1795 19.5166 25.5866 18.669C25.9986 17.8168 26.5715 17.1515 27.3054 16.6733C28.044 16.1903 28.9058 15.9489 29.8906 15.9489C30.6577 15.9489 31.349 16.0909 31.9645 16.375C32.58 16.6591 33.0843 17.0568 33.4773 17.5682C33.8703 18.0795 34.1141 18.6761 34.2088 19.358H32.5327C32.4048 18.8608 32.1207 18.4205 31.6804 18.0369C31.2448 17.6487 30.6577 17.4545 29.919 17.4545C29.2656 17.4545 28.6927 17.625 28.2003 17.9659C27.7126 18.3021 27.3314 18.7779 27.0568 19.3935C26.7869 20.0043 26.652 20.7216 26.652 21.5455C26.652 22.3883 26.7846 23.1222 27.0497 23.7472C27.3196 24.3722 27.6984 24.8575 28.1861 25.2031C28.6785 25.5488 29.2562 25.7216 29.919 25.7216C30.3546 25.7216 30.75 25.6458 31.1051 25.4943C31.4602 25.3428 31.7609 25.125 32.0071 24.8409C32.2533 24.5568 32.4285 24.2159 32.5327 23.8182H34.2088C34.1141 24.4621 33.8797 25.0421 33.5057 25.5582C33.1364 26.0696 32.6463 26.4768 32.0355 26.7798C31.4295 27.0781 30.724 27.2273 29.919 27.2273ZM41.0909 27.2273C40.1061 27.2273 39.242 26.9929 38.4986 26.5241C37.7599 26.0554 37.1823 25.3996 36.7656 24.5568C36.3537 23.714 36.1477 22.7292 36.1477 21.6023C36.1477 20.4659 36.3537 19.474 36.7656 18.6264C37.1823 17.7789 37.7599 17.1207 38.4986 16.652C39.242 16.1832 40.1061 15.9489 41.0909 15.9489C42.0758 15.9489 42.9375 16.1832 43.6761 16.652C44.4195 17.1207 44.9972 17.7789 45.4091 18.6264C45.8258 19.474 46.0341 20.4659 46.0341 21.6023C46.0341 22.7292 45.8258 23.714 45.4091 24.5568C44.9972 25.3996 44.4195 26.0554 43.6761 26.5241C42.9375 26.9929 42.0758 27.2273 41.0909 27.2273ZM41.0909 25.7216C41.839 25.7216 42.4545 25.5298 42.9375 25.1463C43.4205 24.7628 43.7779 24.2585 44.0099 23.6335C44.242 23.0085 44.358 22.3314 44.358 21.6023C44.358 20.8731 44.242 20.1937 44.0099 19.5639C43.7779 18.9342 43.4205 18.4252 42.9375 18.0369C42.4545 17.6487 41.839 17.4545 41.0909 17.4545C40.3428 17.4545 39.7273 17.6487 39.2443 18.0369C38.7614 18.4252 38.4039 18.9342 38.1719 19.5639C37.9399 20.1937 37.8239 20.8731 37.8239 21.6023C37.8239 22.3314 37.9399 23.0085 38.1719 23.6335C38.4039 24.2585 38.7614 24.7628 39.2443 25.1463C39.7273 25.5298 40.3428 25.7216 41.0909 25.7216ZM48.82 27V12.4545H50.5813V18.9318H58.337V12.4545H60.0984V27H58.337V20.4943H50.5813V27H48.82ZM66.6076 27.2557C65.9163 27.2557 65.2889 27.1255 64.7255 26.8651C64.1621 26.5999 63.7146 26.2188 63.3832 25.7216C63.0517 25.2197 62.886 24.6136 62.886 23.9034C62.886 23.2784 63.0091 22.7718 63.2553 22.3835C63.5015 21.9905 63.8306 21.6828 64.2425 21.4602C64.6545 21.2377 65.109 21.072 65.6062 20.9631C66.1081 20.8494 66.6123 20.7595 67.119 20.6932C67.7818 20.608 68.3192 20.544 68.7312 20.5014C69.1478 20.4541 69.4509 20.3759 69.6403 20.267C69.8344 20.1581 69.9315 19.9687 69.9315 19.6989V19.642C69.9315 18.9413 69.7397 18.3968 69.3562 18.0085C68.9774 17.6203 68.4021 17.4261 67.6303 17.4261C66.8301 17.4261 66.2028 17.6013 65.7482 17.9517C65.2937 18.3021 64.9741 18.6761 64.7894 19.0739L63.1985 18.5057C63.4826 17.8428 63.8614 17.3267 64.3349 16.9574C64.8131 16.5833 65.3339 16.3229 65.8974 16.1761C66.4656 16.0246 67.0243 15.9489 67.5735 15.9489C67.9239 15.9489 68.3263 15.9915 68.7809 16.0767C69.2402 16.1572 69.6829 16.3253 70.109 16.581C70.5399 16.8366 70.8974 17.2225 71.1815 17.7386C71.4656 18.2547 71.6076 18.946 71.6076 19.8125V27H69.9315V25.5227H69.8462C69.7326 25.7595 69.5432 26.0128 69.2781 26.2827C69.0129 26.5526 68.6602 26.7822 68.2198 26.9716C67.7795 27.161 67.2421 27.2557 66.6076 27.2557ZM66.8633 25.75C67.5262 25.75 68.0849 25.6198 68.5394 25.3594C68.9987 25.099 69.3443 24.7628 69.5763 24.3509C69.8131 23.9389 69.9315 23.5057 69.9315 23.0511V21.517C69.8604 21.6023 69.7042 21.6804 69.4627 21.7514C69.226 21.8177 68.9513 21.8769 68.6388 21.929C68.3311 21.9763 68.0304 22.0189 67.7369 22.0568C67.448 22.09 67.2137 22.1184 67.0337 22.142C66.5981 22.1989 66.1909 22.2912 65.8121 22.419C65.4381 22.5421 65.1351 22.7292 64.9031 22.9801C64.6758 23.2263 64.5621 23.5625 64.5621 23.9886C64.5621 24.571 64.7776 25.0114 65.2085 25.3097C65.6441 25.6032 66.1957 25.75 66.8633 25.75ZM74.6669 27V16.0909H76.2862V17.7386H76.3999C76.5987 17.1989 76.9586 16.7609 77.4794 16.4247C78.0002 16.0885 78.5874 15.9205 79.2408 15.9205C79.3639 15.9205 79.5178 15.9228 79.7024 15.9276C79.8871 15.9323 80.0268 15.9394 80.1214 15.9489V17.6534C80.0646 17.6392 79.9344 17.6179 79.7308 17.5895C79.532 17.5563 79.3213 17.5398 79.0987 17.5398C78.5684 17.5398 78.0949 17.651 77.6783 17.8736C77.2663 18.0914 76.9396 18.3944 76.6982 18.7827C76.4614 19.1662 76.343 19.6042 76.343 20.0966V27H74.6669ZM91.3608 16.0909L87.3267 27H85.6222L81.5881 16.0909H83.4062L86.4176 24.7841H86.5312L89.5426 16.0909H91.3608ZM97.7564 27.2273C96.7053 27.2273 95.7985 26.9953 95.0362 26.5312C94.2786 26.0625 93.6939 25.4091 93.282 24.571C92.8748 23.7282 92.6712 22.7481 92.6712 21.6307C92.6712 20.5133 92.8748 19.5284 93.282 18.6761C93.6939 17.8191 94.2668 17.1515 95.0007 16.6733C95.7393 16.1903 96.6011 15.9489 97.5859 15.9489C98.1541 15.9489 98.7152 16.0436 99.2692 16.233C99.8232 16.4223 100.327 16.7301 100.782 17.1562C101.237 17.5777 101.599 18.1364 101.869 18.8324C102.138 19.5284 102.273 20.3854 102.273 21.4034V22.1136H93.8643V20.6648H100.569C100.569 20.0492 100.446 19.5 100.2 19.017C99.9581 18.5341 99.6125 18.1529 99.1626 17.8736C98.7176 17.5942 98.192 17.4545 97.5859 17.4545C96.9183 17.4545 96.3407 17.6203 95.853 17.9517C95.37 18.2784 94.9983 18.7045 94.7379 19.2301C94.4775 19.7557 94.3473 20.3191 94.3473 20.9205V21.8864C94.3473 22.7102 94.4893 23.4086 94.7734 23.9815C95.0623 24.5497 95.4624 24.983 95.9737 25.2812C96.4851 25.5748 97.0793 25.7216 97.7564 25.7216C98.1967 25.7216 98.5945 25.66 98.9496 25.5369C99.3094 25.4091 99.6196 25.2197 99.88 24.9688C100.14 24.7131 100.342 24.3958 100.484 24.017L102.103 24.4716C101.933 25.0208 101.646 25.5038 101.244 25.9205C100.841 26.3324 100.344 26.6544 99.7521 26.8864C99.1603 27.1136 98.495 27.2273 97.7564 27.2273ZM112.55 18.5341L111.045 18.9602C110.95 18.7093 110.81 18.4654 110.626 18.2287C110.446 17.9872 110.2 17.7884 109.887 17.6321C109.575 17.4759 109.174 17.3977 108.687 17.3977C108.019 17.3977 107.463 17.5516 107.018 17.8594C106.577 18.1624 106.357 18.5483 106.357 19.017C106.357 19.4337 106.509 19.7628 106.812 20.0043C107.115 20.2457 107.588 20.447 108.232 20.608L109.852 21.0057C110.827 21.2424 111.554 21.6046 112.032 22.0923C112.51 22.5753 112.749 23.1979 112.749 23.9602C112.749 24.5852 112.569 25.1439 112.21 25.6364C111.854 26.1288 111.357 26.517 110.718 26.8011C110.079 27.0852 109.335 27.2273 108.488 27.2273C107.375 27.2273 106.454 26.9858 105.725 26.5028C104.996 26.0199 104.534 25.3144 104.34 24.3864L105.931 23.9886C106.083 24.5758 106.369 25.0161 106.79 25.3097C107.217 25.6032 107.773 25.75 108.46 25.75C109.241 25.75 109.861 25.5843 110.32 25.2528C110.784 24.9167 111.016 24.5142 111.016 24.0455C111.016 23.6667 110.884 23.3494 110.619 23.0938C110.353 22.8333 109.946 22.6392 109.397 22.5114L107.579 22.0852C106.58 21.8485 105.846 21.4815 105.377 20.9844C104.913 20.4825 104.681 19.8551 104.681 19.1023C104.681 18.4867 104.854 17.9422 105.2 17.4688C105.55 16.9953 106.026 16.6236 106.627 16.3537C107.233 16.0838 107.92 15.9489 108.687 15.9489C109.766 15.9489 110.614 16.1856 111.229 16.6591C111.85 17.1326 112.29 17.7576 112.55 18.5341ZM120.017 16.0909V17.5114H114.363V16.0909H120.017ZM116.011 13.4773H117.687V23.875C117.687 24.3485 117.756 24.7036 117.893 24.9403C118.035 25.1723 118.215 25.3286 118.433 25.4091C118.655 25.4848 118.89 25.5227 119.136 25.5227C119.321 25.5227 119.472 25.5133 119.591 25.4943C119.709 25.4706 119.804 25.4517 119.875 25.4375L120.216 26.9432C120.102 26.9858 119.943 27.0284 119.74 27.071C119.536 27.1184 119.278 27.142 118.966 27.142C118.492 27.142 118.028 27.0402 117.574 26.8366C117.124 26.633 116.75 26.3229 116.451 25.9062C116.158 25.4896 116.011 24.964 116.011 24.3295V13.4773Z" fill="black"/>
<path d="M13.7614 67V52.4545H18.8466C19.8598 52.4545 20.6955 52.6297 21.3537 52.9801C22.0118 53.3258 22.5019 53.7921 22.8239 54.3793C23.1458 54.9616 23.3068 55.608 23.3068 56.3182C23.3068 56.9432 23.1955 57.4593 22.973 57.8665C22.7552 58.2737 22.4664 58.5956 22.1065 58.8324C21.7514 59.0691 21.3655 59.2443 20.9489 59.358V59.5C21.3939 59.5284 21.8414 59.6847 22.2912 59.9688C22.741 60.2528 23.1174 60.66 23.4205 61.1903C23.7235 61.7206 23.875 62.3693 23.875 63.1364C23.875 63.8655 23.7093 64.5213 23.3778 65.1037C23.0464 65.6861 22.5232 66.1477 21.8082 66.4886C21.0933 66.8295 20.1629 67 19.017 67H13.7614ZM15.5227 65.4375H19.017C20.1676 65.4375 20.9844 65.215 21.4673 64.7699C21.955 64.3201 22.1989 63.7756 22.1989 63.1364C22.1989 62.6439 22.0734 62.1894 21.8224 61.7727C21.5715 61.3513 21.214 61.0152 20.75 60.7642C20.286 60.5085 19.7367 60.3807 19.1023 60.3807H15.5227V65.4375ZM15.5227 58.8466H18.7898C19.3201 58.8466 19.7983 58.7424 20.2244 58.5341C20.6553 58.3258 20.9962 58.0322 21.2472 57.6534C21.5028 57.2746 21.6307 56.8295 21.6307 56.3182C21.6307 55.679 21.4081 55.1368 20.9631 54.6918C20.518 54.242 19.8125 54.017 18.8466 54.017H15.5227V58.8466ZM33.4169 62.5398V56.0909H35.093V67H33.4169V65.1534H33.3033C33.0476 65.7074 32.6499 66.1785 32.1101 66.5668C31.5703 66.9503 30.8885 67.142 30.0646 67.142C29.3828 67.142 28.7768 66.9929 28.2464 66.6946C27.7161 66.3916 27.2995 65.937 26.9964 65.331C26.6934 64.7202 26.5419 63.9508 26.5419 63.0227V56.0909H28.218V62.9091C28.218 63.7045 28.4406 64.339 28.8857 64.8125C29.3355 65.286 29.9084 65.5227 30.6044 65.5227C31.0211 65.5227 31.4448 65.4162 31.8757 65.2031C32.3113 64.9901 32.6759 64.6634 32.9695 64.223C33.2678 63.7827 33.4169 63.2216 33.4169 62.5398ZM45.8903 58.5341L44.3846 58.9602C44.2899 58.7093 44.1502 58.4654 43.9656 58.2287C43.7856 57.9872 43.5394 57.7884 43.2269 57.6321C42.9144 57.4759 42.5143 57.3977 42.0266 57.3977C41.359 57.3977 40.8027 57.5516 40.3576 57.8594C39.9173 58.1624 39.6971 58.5483 39.6971 59.017C39.6971 59.4337 39.8486 59.7628 40.1516 60.0043C40.4547 60.2457 40.9281 60.447 41.5721 60.608L43.1914 61.0057C44.1668 61.2424 44.8936 61.6046 45.3718 62.0923C45.85 62.5753 46.0891 63.1979 46.0891 63.9602C46.0891 64.5852 45.9092 65.1439 45.5494 65.6364C45.1942 66.1288 44.6971 66.517 44.0579 66.8011C43.4187 67.0852 42.6753 67.2273 41.8278 67.2273C40.7151 67.2273 39.7942 66.9858 39.065 66.5028C38.3358 66.0199 37.8742 65.3144 37.68 64.3864L39.271 63.9886C39.4225 64.5758 39.7089 65.0161 40.1303 65.3097C40.5565 65.6032 41.1128 65.75 41.7994 65.75C42.5806 65.75 43.2009 65.5843 43.6602 65.2528C44.1242 64.9167 44.3562 64.5142 44.3562 64.0455C44.3562 63.6667 44.2236 63.3494 43.9585 63.0938C43.6933 62.8333 43.2861 62.6392 42.7369 62.5114L40.9187 62.0852C39.9196 61.8485 39.1857 61.4815 38.717 60.9844C38.253 60.4825 38.021 59.8551 38.021 59.1023C38.021 58.4867 38.1938 57.9422 38.5394 57.4688C38.8898 56.9953 39.3656 56.6236 39.967 56.3537C40.573 56.0838 41.2596 55.9489 42.0266 55.9489C43.1062 55.9489 43.9537 56.1856 44.5692 56.6591C45.1895 57.1326 45.6299 57.7576 45.8903 58.5341ZM48.6122 67V56.0909H50.2884V67H48.6122ZM49.4645 54.2727C49.1378 54.2727 48.8561 54.1615 48.6193 53.9389C48.3873 53.7164 48.2713 53.4489 48.2713 53.1364C48.2713 52.8239 48.3873 52.5563 48.6193 52.3338C48.8561 52.1113 49.1378 52 49.4645 52C49.7912 52 50.0705 52.1113 50.3026 52.3338C50.5393 52.5563 50.6577 52.8239 50.6577 53.1364C50.6577 53.4489 50.5393 53.7164 50.3026 53.9389C50.0705 54.1615 49.7912 54.2727 49.4645 54.2727ZM55.0344 60.4375V67H53.3583V56.0909H54.9776V57.7955H55.1197C55.3754 57.2415 55.7636 56.7964 56.2844 56.4602C56.8053 56.1193 57.4776 55.9489 58.3015 55.9489C59.0401 55.9489 59.6864 56.1004 60.2404 56.4034C60.7944 56.7017 61.2253 57.1562 61.533 57.767C61.8408 58.3731 61.9947 59.1402 61.9947 60.0682V67H60.3185V60.1818C60.3185 59.3248 60.096 58.6572 59.6509 58.179C59.2058 57.696 58.5951 57.4545 57.8185 57.4545C57.2835 57.4545 56.8053 57.5705 56.3839 57.8026C55.9672 58.0346 55.6381 58.3731 55.3967 58.8182C55.1552 59.2633 55.0344 59.803 55.0344 60.4375ZM69.6314 67.2273C68.5803 67.2273 67.6735 66.9953 66.9112 66.5312C66.1536 66.0625 65.5689 65.4091 65.157 64.571C64.7498 63.7282 64.5462 62.7481 64.5462 61.6307C64.5462 60.5133 64.7498 59.5284 65.157 58.6761C65.5689 57.8191 66.1418 57.1515 66.8757 56.6733C67.6143 56.1903 68.4761 55.9489 69.4609 55.9489C70.0291 55.9489 70.5902 56.0436 71.1442 56.233C71.6982 56.4223 72.2024 56.7301 72.657 57.1562C73.1115 57.5777 73.4737 58.1364 73.7436 58.8324C74.0135 59.5284 74.1484 60.3854 74.1484 61.4034V62.1136H65.7393V60.6648H72.4439C72.4439 60.0492 72.3208 59.5 72.0746 59.017C71.8331 58.5341 71.4875 58.1529 71.0376 57.8736C70.5926 57.5942 70.067 57.4545 69.4609 57.4545C68.7933 57.4545 68.2157 57.6203 67.728 57.9517C67.245 58.2784 66.8733 58.7045 66.6129 59.2301C66.3525 59.7557 66.2223 60.3191 66.2223 60.9205V61.8864C66.2223 62.7102 66.3643 63.4086 66.6484 63.9815C66.9373 64.5497 67.3374 64.983 67.8487 65.2812C68.3601 65.5748 68.9543 65.7216 69.6314 65.7216C70.0717 65.7216 70.4695 65.66 70.8246 65.5369C71.1844 65.4091 71.4946 65.2197 71.755 64.9688C72.0154 64.7131 72.2166 64.3958 72.3587 64.017L73.978 64.4716C73.8075 65.0208 73.5211 65.5038 73.1186 65.9205C72.7161 66.3324 72.219 66.6544 71.6271 66.8864C71.0353 67.1136 70.37 67.2273 69.6314 67.2273ZM84.4254 58.5341L82.9197 58.9602C82.825 58.7093 82.6854 58.4654 82.5007 58.2287C82.3208 57.9872 82.0746 57.7884 81.7621 57.6321C81.4496 57.4759 81.0495 57.3977 80.5618 57.3977C79.8942 57.3977 79.3378 57.5516 78.8928 57.8594C78.4524 58.1624 78.2322 58.5483 78.2322 59.017C78.2322 59.4337 78.3838 59.7628 78.6868 60.0043C78.9898 60.2457 79.4633 60.447 80.1072 60.608L81.7266 61.0057C82.7019 61.2424 83.4287 61.6046 83.907 62.0923C84.3852 62.5753 84.6243 63.1979 84.6243 63.9602C84.6243 64.5852 84.4444 65.1439 84.0845 65.6364C83.7294 66.1288 83.2322 66.517 82.593 66.8011C81.9538 67.0852 81.2105 67.2273 80.3629 67.2273C79.2502 67.2273 78.3293 66.9858 77.6001 66.5028C76.871 66.0199 76.4093 65.3144 76.2152 64.3864L77.8061 63.9886C77.9576 64.5758 78.2441 65.0161 78.6655 65.3097C79.0916 65.6032 79.648 65.75 80.3345 65.75C81.1158 65.75 81.736 65.5843 82.1953 65.2528C82.6593 64.9167 82.8913 64.5142 82.8913 64.0455C82.8913 63.6667 82.7588 63.3494 82.4936 63.0938C82.2285 62.8333 81.8213 62.6392 81.272 62.5114L79.4538 62.0852C78.4548 61.8485 77.7209 61.4815 77.2521 60.9844C76.7881 60.4825 76.5561 59.8551 76.5561 59.1023C76.5561 58.4867 76.7289 57.9422 77.0746 57.4688C77.425 56.9953 77.9008 56.6236 78.5021 56.3537C79.1082 56.0838 79.7947 55.9489 80.5618 55.9489C81.6413 55.9489 82.4889 56.1856 83.1044 56.6591C83.7247 57.1326 84.165 57.7576 84.4254 58.5341ZM104.704 57H102.943C102.839 56.4934 102.656 56.0483 102.396 55.6648C102.14 55.2812 101.828 54.9593 101.458 54.6989C101.094 54.4337 100.689 54.2348 100.244 54.1023C99.7989 53.9697 99.3349 53.9034 98.8519 53.9034C97.9712 53.9034 97.1734 54.1259 96.4585 54.571C95.7482 55.0161 95.1824 55.6719 94.761 56.5384C94.3443 57.4048 94.136 58.4678 94.136 59.7273C94.136 60.9867 94.3443 62.0497 94.761 62.9162C95.1824 63.7827 95.7482 64.4384 96.4585 64.8835C97.1734 65.3286 97.9712 65.5511 98.8519 65.5511C99.3349 65.5511 99.7989 65.4848 100.244 65.3523C100.689 65.2197 101.094 65.0232 101.458 64.7628C101.828 64.4976 102.14 64.1733 102.396 63.7898C102.656 63.4015 102.839 62.9564 102.943 62.4545H104.704C104.572 63.1979 104.33 63.8632 103.98 64.4503C103.629 65.0374 103.194 65.5369 102.673 65.9489C102.152 66.3561 101.567 66.6662 100.919 66.8793C100.275 67.0923 99.5858 67.1989 98.8519 67.1989C97.6114 67.1989 96.5082 66.8958 95.5423 66.2898C94.5763 65.6837 93.8164 64.822 93.2624 63.7045C92.7085 62.5871 92.4315 61.2614 92.4315 59.7273C92.4315 58.1932 92.7085 56.8674 93.2624 55.75C93.8164 54.6326 94.5763 53.7708 95.5423 53.1648C96.5082 52.5587 97.6114 52.2557 98.8519 52.2557C99.5858 52.2557 100.275 52.3622 100.919 52.5753C101.567 52.7884 102.152 53.1009 102.673 53.5128C103.194 53.92 103.629 54.4171 103.98 55.0043C104.33 55.5866 104.572 56.2519 104.704 57ZM111.897 67.2273C110.846 67.2273 109.939 66.9953 109.177 66.5312C108.419 66.0625 107.835 65.4091 107.423 64.571C107.015 63.7282 106.812 62.7481 106.812 61.6307C106.812 60.5133 107.015 59.5284 107.423 58.6761C107.835 57.8191 108.407 57.1515 109.141 56.6733C109.88 56.1903 110.742 55.9489 111.727 55.9489C112.295 55.9489 112.856 56.0436 113.41 56.233C113.964 56.4223 114.468 56.7301 114.923 57.1562C115.377 57.5777 115.739 58.1364 116.009 58.8324C116.279 59.5284 116.414 60.3854 116.414 61.4034V62.1136H108.005V60.6648H114.71C114.71 60.0492 114.586 59.5 114.34 59.017C114.099 58.5341 113.753 58.1529 113.303 57.8736C112.858 57.5942 112.333 57.4545 111.727 57.4545C111.059 57.4545 110.481 57.6203 109.994 57.9517C109.511 58.2784 109.139 58.7045 108.879 59.2301C108.618 59.7557 108.488 60.3191 108.488 60.9205V61.8864C108.488 62.7102 108.63 63.4086 108.914 63.9815C109.203 64.5497 109.603 64.983 110.114 65.2812C110.626 65.5748 111.22 65.7216 111.897 65.7216C112.337 65.7216 112.735 65.66 113.09 65.5369C113.45 65.4091 113.76 65.2197 114.021 64.9688C114.281 64.7131 114.482 64.3958 114.624 64.017L116.244 64.4716C116.073 65.0208 115.787 65.5038 115.384 65.9205C114.982 66.3324 114.485 66.6544 113.893 66.8864C113.301 67.1136 112.636 67.2273 111.897 67.2273ZM120.64 60.4375V67H118.964V56.0909H120.583V57.7955H120.725C120.981 57.2415 121.369 56.7964 121.89 56.4602C122.411 56.1193 123.083 55.9489 123.907 55.9489C124.646 55.9489 125.292 56.1004 125.846 56.4034C126.4 56.7017 126.831 57.1562 127.138 57.767C127.446 58.3731 127.6 59.1402 127.6 60.0682V67H125.924V60.1818C125.924 59.3248 125.701 58.6572 125.256 58.179C124.811 57.696 124.201 57.4545 123.424 57.4545C122.889 57.4545 122.411 57.5705 121.989 57.8026C121.573 58.0346 121.244 58.3731 121.002 58.8182C120.761 59.2633 120.64 59.803 120.64 60.4375ZM135.407 56.0909V57.5114H129.754V56.0909H135.407ZM131.402 53.4773H133.078V63.875C133.078 64.3485 133.146 64.7036 133.284 64.9403C133.426 65.1723 133.606 65.3286 133.824 65.4091C134.046 65.4848 134.28 65.5227 134.527 65.5227C134.711 65.5227 134.863 65.5133 134.981 65.4943C135.1 65.4706 135.194 65.4517 135.265 65.4375L135.606 66.9432C135.493 66.9858 135.334 67.0284 135.13 67.071C134.927 67.1184 134.669 67.142 134.356 67.142C133.883 67.142 133.419 67.0402 132.964 66.8366C132.514 66.633 132.14 66.3229 131.842 65.9062C131.548 65.4896 131.402 64.964 131.402 64.3295V53.4773ZM142.385 67.2273C141.334 67.2273 140.427 66.9953 139.665 66.5312C138.908 66.0625 138.323 65.4091 137.911 64.571C137.504 63.7282 137.3 62.7481 137.3 61.6307C137.3 60.5133 137.504 59.5284 137.911 58.6761C138.323 57.8191 138.896 57.1515 139.63 56.6733C140.368 56.1903 141.23 55.9489 142.215 55.9489C142.783 55.9489 143.344 56.0436 143.898 56.233C144.452 56.4223 144.956 56.7301 145.411 57.1562C145.865 57.5777 146.228 58.1364 146.498 58.8324C146.767 59.5284 146.902 60.3854 146.902 61.4034V62.1136H138.493V60.6648H145.198C145.198 60.0492 145.075 59.5 144.828 59.017C144.587 58.5341 144.241 58.1529 143.792 57.8736C143.346 57.5942 142.821 57.4545 142.215 57.4545C141.547 57.4545 140.97 57.6203 140.482 57.9517C139.999 58.2784 139.627 58.7045 139.367 59.2301C139.106 59.7557 138.976 60.3191 138.976 60.9205V61.8864C138.976 62.7102 139.118 63.4086 139.402 63.9815C139.691 64.5497 140.091 64.983 140.603 65.2812C141.114 65.5748 141.708 65.7216 142.385 65.7216C142.826 65.7216 143.223 65.66 143.578 65.5369C143.938 65.4091 144.248 65.2197 144.509 64.9688C144.769 64.7131 144.971 64.3958 145.113 64.017L146.732 64.4716C146.561 65.0208 146.275 65.5038 145.873 65.9205C145.47 66.3324 144.973 66.6544 144.381 66.8864C143.789 67.1136 143.124 67.2273 142.385 67.2273ZM149.452 67V56.0909H151.071V57.7386H151.185C151.384 57.1989 151.744 56.7609 152.265 56.4247C152.785 56.0885 153.373 55.9205 154.026 55.9205C154.149 55.9205 154.303 55.9228 154.488 55.9276C154.672 55.9323 154.812 55.9394 154.907 55.9489V57.6534C154.85 57.6392 154.72 57.6179 154.516 57.5895C154.317 57.5563 154.106 57.5398 153.884 57.5398C153.354 57.5398 152.88 57.651 152.463 57.8736C152.051 58.0914 151.725 58.3944 151.483 58.7827C151.247 59.1662 151.128 59.6042 151.128 60.0966V67H149.452Z" fill="black"/>
</svg>
